<?xml version="1.0" encoding="utf-8"?>
<svg viewBox="121.1289 99.0891 253.6081 250.0633" xmlns="http://www.w3.org/2000/svg">
  <path d="M 135.743 257.67 C 130.543 241.47 129.043 224.37 132.043 206.77 C 133.343 199.47 135.343 192.47 137.543 185.37 C 137.543 185.37 151.343 140.07 198.043 119.37 C 198.043 119.37 214.143 110.87 238.343 110.27 C 238.343 110.27 235.043 107.07 232.943 105.67 C 221.543 98.07 204.543 95.57 194.243 106.27 C 191.143 109.47 188.543 112.97 185.643 116.17 C 182.343 119.77 178.343 122.77 173.743 124.47 C 169.743 125.97 165.743 125.67 161.643 126.37 C 157.443 127.07 153.143 128.57 149.743 131.27 C 146.043 134.27 144.543 138.27 144.143 142.87 C 143.743 146.47 143.843 150.17 143.643 153.77 C 143.143 164.37 139.743 167.37 132.143 173.27 C 128.943 175.67 126.243 178.87 124.243 182.27 C 118.243 192.87 127.843 203.87 128.343 214.57 C 128.443 216.77 128.243 218.97 127.443 221.07 C 126.643 223.37 125.043 224.87 123.743 226.77 C 121.943 229.27 120.743 232.27 121.243 235.37 C 121.743 238.47 123.343 241.37 124.843 244.07 C 127.743 248.87 131.343 253.17 135.143 257.27 C 135.343 257.27 135.543 257.47 135.743 257.67" style="" transform="matrix(1, 0, 0, 1, 7.105427357601002e-15, 0)"/>
  <path d="M 326.543 296.07 C 349.543 286.07 359.343 268.77 359.343 268.77 C 380.843 239.47 373.543 208.57 373.543 208.57 C 359.843 238.37 347.343 246.57 347.343 246.57 C 381.043 195.27 347.543 164.27 347.543 164.27 C 361.243 193.47 343.043 229.07 343.043 229.07 C 327.743 261.27 306.043 272.77 306.043 272.77 C 330.243 277.27 348.043 260.97 348.043 260.97 C 313.343 298.47 275.743 296.67 275.743 296.67 C 291.543 314.37 315.243 312.87 315.243 312.87 C 284.243 320.17 255.143 309.87 231.243 289.97 C 226.743 286.27 222.443 282.27 218.443 277.97 C 218.443 277.97 214.843 274.17 214.143 273.17 L 214.043 273.07 C 213.543 291.57 232.843 308.77 232.843 308.77 C 208.643 298.77 197.543 277.07 197.543 277.07 C 197.543 277.07 181.243 249.27 193.043 217.57 C 204.843 185.87 240.543 179.07 240.543 179.07 C 270.043 193.37 295.043 197.87 295.043 197.87 C 347.743 206.67 344.743 180.87 344.743 180.87 C 345.243 158.67 311.743 135.07 311.743 135.07 C 252.043 90.77 198.043 119.37 198.043 119.37 C 151.343 140.07 137.543 185.37 137.543 185.37 C 135.343 192.47 133.343 199.47 132.043 206.77 C 126.943 236.47 134.643 264.57 151.343 289.57 C 177.343 328.37 219.543 341.77 219.543 341.77 C 282.043 362.97 324.743 331.77 324.743 331.77 C 364.043 304.77 371.943 273.57 371.943 273.57 C 340.243 298.37 326.543 296.07 326.543 296.07 Z M 277.743 150.17 C 280.743 150.17 283.143 152.57 283.143 155.57 C 283.143 158.57 280.743 160.97 277.743 160.97 C 274.743 160.97 272.343 158.57 272.343 155.57 C 272.343 152.57 274.743 150.17 277.743 150.17 Z" style="" transform="matrix(1, 0, 0, 1, 7.105427357601002e-15, 0)"/>
  <path d="M 344.643 180.77 C 345.143 158.57 311.643 134.97 311.643 134.97 C 251.943 90.77 197.943 119.37 197.943 119.37 C 151.243 140.07 137.443 185.37 137.443 185.37 C 134.743 193.07 132.343 204.87 132.343 204.87 C 129.443 219.67 130.743 233.37 130.743 233.37 C 131.943 246.47 134.843 255.27 134.843 255.27 C 137.843 264.67 139.243 267.57 139.243 267.57 C 139.143 267.27 138.643 265.07 138.643 265.07 C 138.643 265.07 134.443 244.87 138.343 225.47 C 138.343 225.47 141.743 205.27 155.543 189.67 C 155.543 189.67 177.943 157.77 219.643 170.27 C 219.643 170.27 228.643 173.47 231.743 175.07 C 234.843 176.57 240.243 178.87 240.243 178.87 C 269.743 193.17 294.743 197.67 294.743 197.67 C 347.643 206.57 344.643 180.77 344.643 180.77 Z M 277.743 161.07 C 274.743 161.07 272.343 158.67 272.343 155.67 C 272.343 152.67 274.743 150.27 277.743 150.27 C 280.743 150.27 283.143 152.67 283.143 155.67 C 283.143 158.67 280.743 161.07 277.743 161.07 Z" style="" transform="matrix(1, 0, 0, 1, 7.105427357601002e-15, 0)"/>
  <path d="M 243.543 140.57 L 209.443 129.97 C 209.243 129.97 208.243 129.47 206.443 129.97 C 206.443 129.97 186.343 135.07 189.843 146.07 C 189.843 146.07 191.943 152.97 197.643 159.67 L 235.143 157.87 L 243.543 140.57 Z" style="" transform="matrix(1, 0, 0, 1, 7.105427357601002e-15, 0)"/>
</svg>